PathFileType	4	(X/Y/Z)	 s07c0203.trc
DataRate	CameraRate	NumFrames	NumMarkers	Units	OrigDataRate	OrigDataStartFrame	OrigNumFrames
200	200	4	48	mm	200	1501	2000
Frame#	Time	racr			lacr			c7			jug			rlel			rdr			llel			ldr			s2			lic			ric			lasi			rasi			rpsi			lpsi			rgt			lgt			rth1			rth2			rth3			rth4			rlfc			rmfc			rsh1			rsh2			rsh3			rsh4			rlmal			rcal			rtoe			rmt5			lth1			lth2			lth4			lth3			llfc			lmfc			lsh1			lsh2			lsh3			lsh4			llmal			lcal			ltoe			lmt5			SBIKE			LBIKE			RBIKE			
		X1	Y1	Z1	X2	Y2	Z2	X3	Y3	Z3	X4	Y4	Z4	X5	Y5	Z5	X6	Y6	Z6	X7	Y7	Z7	X8	Y8	Z8	X9	Y9	Z9	X10	Y10	Z10	X11	Y11	Z11	X12	Y12	Z12	X13	Y13	Z13	X14	Y14	Z14	X15	Y15	Z15	X16	Y16	Z16	X17	Y17	Z17	X18	Y18	Z18	X19	Y19	Z19	X20	Y20	Z20	X21	Y21	Z21	X22	Y22	Z22	X23	Y23	Z23	X24	Y24	Z24	X25	Y25	Z25	X26	Y26	Z26	X27	Y27	Z27	X28	Y28	Z28	X29	Y29	Z29	X30	Y30	Z30	X31	Y31	Z31	X32	Y32	Z32	X33	Y33	Z33	X34	Y34	Z34	X35	Y35	Z35	X36	Y36	Z36	X37	Y37	Z37	X38	Y38	Z38	X39	Y39	Z39	X40	Y40	Z40	X41	Y41	Z41	X42	Y42	Z42	X43	Y43	Z43	X44	Y44	Z44	X45	Y45	Z45	X46	Y46	Z46	X47	Y47	Z47	X48	Y48	Z48	
1501	7.5050	534.757371	1380.570031	-58.395475	546.673488	1363.896394	-328.749005	511.572982	1422.367114	-198.802364	470.670517	1275.587562	-205.180033	489.911494	1090.048011	138.590762	694.746664	951.938473	-20.766481	510.218347	1123.095690	-579.737490	696.266772	945.298335	-438.853655	-74.560686	1209.727200	-245.146435	96.133507	1261.157556	-367.978754	78.221465	1247.333642	-77.221889	122.909888	1187.745041	-340.364494	96.715294	1189.513206	-93.406572	-51.134019	1249.260696	-189.756684	-32.095491	1259.632553	-294.373127	13.837167	1108.975192	-47.736113	51.135357	1123.895867	-416.043886	106.105119	960.840498	-47.028801	158.835834	891.706857	-61.507774	172.985493	807.143285	-66.639454	188.821355	907.005313	-77.965241	223.030138	686.381884	-100.134885	197.590777	668.679002	-198.873275	191.302720	547.227893	-66.649390	197.405312	459.796847	-85.458935	163.760613	379.605932	-77.675831	208.520077	461.371099	-124.414678	138.142675	237.218563	-74.145664	81.617690	180.138931	-101.142486	367.081186	234.614958	-120.568303	301.674244	181.226346	-49.902252	148.994013	1060.574811	-414.405856	236.519359	1050.814402	-411.899409	249.782956	1083.215567	-400.383722	308.718527	997.857672	-408.723201	459.332801	893.739387	-366.960624	442.621945	875.987435	-270.346290	349.362281	792.070275	-389.858163	301.658919	721.414955	-377.446448	221.614646	680.968333	-385.595521	306.783179	718.854012	-335.674814	119.566610	599.750352	-392.110654	50.082736	636.259500	-354.618808	182.147147	378.044261	-354.041452	121.986207	435.915643	-416.655836	-256.899842	965.644287	-231.552307	-75.543026	83.704199	-437.154888	-82.136018	79.544280	-39.657819	
1502	7.5100	536.398543	1378.592061	-60.746473	544.133558	1366.266314	-331.103525	511.680080	1422.983813	-200.710310	468.887594	1276.830033	-208.746022	490.927387	1090.371238	139.376927	694.617517	952.011522	-20.574804	507.926568	1121.788211	-578.366868	695.890730	944.953145	-438.081867	-73.660634	1209.781838	-242.503411	94.958179	1263.464913	-365.797502	80.781336	1245.505085	-75.212174	122.659927	1189.567863	-339.070835	98.842045	1187.766533	-92.108491	-49.120019	1249.159328	-187.122592	-32.046417	1260.632449	-291.087345	15.189321	1107.354767	-46.730737	51.779860	1126.726338	-415.280405	104.235396	957.676242	-45.394092	155.555163	887.527197	-59.585987	167.852750	802.757368	-64.567320	185.806995	902.069205	-76.307912	215.822276	681.032343	-98.512900	191.020813	662.955946	-196.889253	183.615190	542.177595	-65.423476	189.950036	454.786504	-84.394881	155.992109	374.612742	-77.034334	201.080350	456.289690	-123.351730	130.011670	232.385185	-74.262906	72.971990	175.836073	-101.298296	358.918119	227.144432	-120.870309	293.374852	174.801074	-49.751154	150.873715	1065.639113	-413.731725	238.788428	1057.686521	-410.898141	251.114833	1090.335864	-399.309441	311.951871	1006.379699	-408.067331	464.666859	904.716358	-366.272556	448.144990	886.259579	-269.319954	356.013270	802.017266	-389.796073	308.746155	731.035061	-377.221912	228.894721	690.110823	-385.459873	313.666838	728.296063	-335.660718	127.121021	607.140386	-392.220884	55.930063	639.545026	-348.447443	191.750045	386.217451	-354.004185	131.215500	443.143861	-415.843793	-256.843567	965.728204	-231.341074	-75.510239	83.864056	-437.157356	-82.124717	79.575393	-39.623304	
1503	7.5150	537.973122	1376.704909	-63.184405	542.147506	1368.855244	-334.451260	511.607557	1423.604848	-202.777837	468.053869	1277.787730	-212.571493	491.909150	1090.862069	140.018082	694.547723	952.127325	-20.401460	505.588541	1120.571687	-576.832863	695.726438	944.799856	-437.514832	-72.831576	1209.717849	-240.056159	94.215823	1265.770064	-365.026168	83.295560	1243.385826	-73.265234	122.652019	1191.314484	-338.220298	101.008275	1185.981350	-90.835972	-47.286088	1248.501010	-184.255430	-31.829048	1261.370315	-288.332916	16.447447	1105.711978	-45.776389	52.426288	1129.311876	-414.556340	102.436843	954.886184	-43.798350	152.491783	883.650390	-57.578530	163.237065	798.664800	-62.080535	182.862242	897.730946	-74.351323	209.098237	676.120941	-96.675287	184.804313	658.429352	-195.289919	176.105000	537.877674	-63.996555	182.364202	450.151675	-83.476305	148.050131	369.999259	-76.487586	193.781953	451.657986	-122.327202	121.580455	227.934549	-74.291829	64.196458	172.246965	-101.213339	350.895063	220.445861	-120.219507	284.467592	168.484761	-49.690621	152.678382	1070.763396	-413.507683	240.609958	1064.564780	-410.332808	252.009023	1097.037566	-397.781291	314.802580	1014.538896	-407.485936	465.988661	917.733261	-371.209225	453.328782	896.514531	-268.518887	362.542966	811.526113	-389.448187	315.643601	740.404732	-377.148586	235.895771	699.011814	-385.318500	320.441465	737.524727	-335.381494	134.025733	614.240387	-392.236632	62.052529	645.348507	-348.298952	202.229762	395.066075	-355.212149	140.361883	450.037389	-415.683624	-256.731718	965.786698	-231.254762	-75.494804	83.950219	-437.144017	-82.109211	79.580917	-39.585048	
1504	7.5200	539.633029	1374.829118	-65.814532	540.013001	1371.531056	-338.023501	511.592835	1424.083657	-204.851509	467.293803	1278.613186	-216.261348	492.942234	1091.527971	140.504798	694.584745	952.317113	-20.210010	503.189449	1119.230930	-575.055178	695.833700	944.860497	-437.345374	-72.119844	1209.524664	-237.735153	92.755103	1267.883575	-363.456512	86.190641	1240.956979	-71.637888	122.520462	1192.908797	-337.069695	103.062509	1184.214174	-89.675471	-46.250710	1247.373199	-181.696493	-31.668328	1261.621859	-285.518623	17.534204	1104.085364	-44.810030	52.939787	1131.649621	-413.841674	100.730231	952.335651	-42.196366	149.626248	880.169896	-55.432634	158.974245	794.928405	-59.388232	180.223404	893.527259	-72.661123	202.903430	671.667147	-94.886852	180.201396	653.817546	-193.157403	169.193514	533.531636	-62.804696	174.904109	445.973272	-82.449229	140.121269	365.972546	-75.924417	186.686577	447.452880	-121.191057	112.799395	223.936747	-74.374279	54.984039	169.020427	-101.227555	342.171743	214.315329	-120.089709	275.097704	162.861231	-49.615702	154.012314	1075.187067	-412.890038	242.079268	1070.801812	-409.625725	252.802151	1103.372694	-396.642560	317.271835	1022.289742	-407.030672	470.009007	926.480565	-370.735798	458.248534	905.653173	-268.082872	368.849663	820.729899	-389.578486	321.832530	749.298014	-376.818308	242.227282	707.548383	-385.558832	327.652788	745.824179	-335.070737	140.248584	620.820325	-392.210568	68.448448	653.366487	-353.985004	212.658516	401.935760	-354.123649	149.693364	456.318747	-415.667289	-256.624820	965.834615	-231.168242	-75.479419	84.007934	-437.122485	-82.090984	79.609746	-39.569246	
